#!OML:ASF H:\Male1\Project 1\Capture day 1\Session 1\Male1.ASF
:FULLY-SPECIFIED
:DEGREES
512
root 6.4095 15.2266 -0.572194 -170.418 -88.7385 170.902
lowerback 8.07832 1.01497 -0.503581
upperback 3.74389 1.18585 -0.930447
thorax -0.650665 0.546051 -0.774639
lowerneck -0.069607 3.98708 8.87872
upperneck -14.1358 4.65533 -7.0839
head -3.80048 2.0836 -3.76718
rclavicle -6.95746e-016 4.17448e-015
rhumerus -10.8086 39.8803 -84.2823
rradius 105.745
rwrist -30.7936
rhand -30.487 7.25727
rfingers 7.12502
rthumb -3.78777 -22.6888
lclavicle -6.95746e-016 4.17448e-015
lhumerus -1.90449 -31.8319 69.6125
lradius 114.505
lwrist -15.4518
lhand -35.6733 1.14603
lfingers 7.12502
lthumb -8.79458 30.9428
rfemur -13.3548 10.0865 17.6518
rtibia 35.5805
rfoot -30.8868 -28.2297
rtoes -19.3558
lfemur -7.26629 -14.8978 -20.4601
ltibia 31.746
lfoot -29.3763 25.6541
ltoes -1.41419
513
root 6.4098 15.2281 -0.598628 -166.012 -88.9284 166.424
lowerback 7.91532 0.922876 -0.482022
upperback 3.79736 1.06693 -0.951064
thorax -0.505988 0.486981 -0.794741
lowerneck 0.129758 4.0732 8.97549
upperneck -14.4713 4.76871 -7.16539
head -3.92039 2.13407 -3.82313
rclavicle 9.39258e-015 -2.36554e-014
rhumerus -9.59589 39.7357 -84.3822
rradius 106.353
rwrist -31.41
rhand -31.7767 6.74601
rfingers 7.12502
rthumb -5.03317 -23.1742
lclavicle 9.39258e-015 -2.36554e-014
lhumerus 0.159214 -31.7955 68.9004
lradius 115.101
lwrist -15.6724
lhand -36.2719 1.75964
lfingers 7.12502
lthumb -9.37217 31.5313
rfemur -13.3016 9.80144 17.7051
rtibia 35.6199
rfoot -31.0397 -28.1188
rtoes -18.8474
lfemur -7.23755 -15.1358 -20.435
ltibia 31.7563
lfoot -29.2873 25.6897
ltoes -1.21919
514
root 6.40133 15.2309 -0.621948 -160.921 -89.1253 161.26
lowerback 7.86834 0.823745 -0.383854
upperback 3.65687 0.946848 -0.988031
thorax -0.623947 0.430757 -0.878532
lowerneck 0.433909 4.1196 8.99403
upperneck -14.5951 4.86246 -7.13862
head -4.00134 2.18198 -3.83041
rclavicle 1.12313e-014 -1.5704e-014
rhumerus -8.81687 39.5823 -84.8861
rradius 106.806
rwrist -31.6772
rhand -33.0011 6.46315
rfingers 7.12502
rthumb -6.21531 -23.4257
lclavicle 1.12313e-014 -1.5704e-014
lhumerus 1.84516 -31.8839 68.3075
lradius 115.755
lwrist -15.8828
lhand -38.2065 0.575419
lfingers 7.12502
lthumb -11.2384 30.2544
rfemur -13.0923 9.57414 17.7592
rtibia 35.5261
rfoot -31.3304 -27.8865
rtoes -18.1534
lfemur -7.19909 -15.4935 -20.4238
ltibia 31.8813
lfoot -29.6181 25.5688
ltoes -0.0414055
515
root 6.39332 15.2285 -0.636994 -140.94 -89.2542 141.134
lowerback 7.75008 0.728253 -0.406217
upperback 3.622 0.821174 -1.0325
thorax -0.595873 0.369068 -0.900134
lowerneck 0.782706 4.17289 8.96637
upperneck -14.8137 4.95953 -7.14007
head -4.1183 2.2336 -3.84285
rclavicle 1.88845e-015 1.25234e-014
rhumerus -7.66239 39.4477 -85.1323
rradius 107.182
rwrist -32.3397
rhand -33.8689 6.19112
rfingers 7.12502
rthumb -7.05302 -23.6714
lclavicle 1.88845e-015 1.25234e-014
lhumerus 3.72855 -31.8124 67.6789
lradius 116.306
lwrist -15.9335
lhand -39.2991 0.490212
lfingers 7.12502
lthumb -12.2921 30.1089
rfemur -12.7896 9.14827 17.5991
rtibia 35.4367
rfoot -31.4544 -27.667
rtoes -18.072
lfemur -7.06486 -15.9117 -20.6702
ltibia 32.0228
lfoot -29.9218 25.5419
ltoes 0.738515
516
root 6.38846 15.221 -0.669744 -170.112 -89.1964 170.059
lowerback 7.72443 0.823889 -0.255915
upperback 3.64203 0.961451 -0.881901
thorax -0.559401 0.439873 -0.840288
lowerneck 1.06033 4.26288 8.91208
upperneck -15.0405 5.09927 -7.1231
head -4.22395 2.3048 -3.845
rclavicle -2.33572e-015 -3.97569e-015
rhumerus -6.11741 39.1988 -85.1579
rradius 107.543
rwrist -34.1479
rhand -34.497 5.85213
rfingers 7.12502
rthumb -7.65933 -23.9892
lclavicle -2.33572e-015 -3.97569e-015
lhumerus 5.82934 -31.5941 66.9188
lradius 116.661
lwrist -15.9347
lhand -39.7245 1.13509
lfingers 7.12502
lthumb -12.7022 30.7288
rfemur -12.448 9.78294 18.2305
rtibia 35.3341
rfoot -31.9421 -28.0177
rtoes -17.6918
lfemur -6.84192 -15.9763 -20.28
ltibia 32.242
lfoot -30.2941 25.5485
ltoes 1.18053
517
root 6.38729 15.2107 -0.691286 -143.716 -89.1875 143.652
lowerback 7.49407 0.840474 -0.490599
upperback 3.61984 0.969685 -1.02348
thorax -0.456503 0.443239 -0.851622
lowerneck 1.02489 4.39552 8.88601
upperneck -15.1268 5.2804 -7.04248
head -4.2333 2.38804 -3.8211
rclavicle -1.67476e-014 1.47101e-014
rhumerus -4.33471 38.8707 -85.194
rradius 107.643
rwrist -35.6512
rhand -35.3645 5.32797
rfingers 7.12502
rthumb -8.49657 -24.4811
lclavicle -1.67476e-014 1.47101e-014
lhumerus 8.18998 -31.255 65.9027
lradius 116.824
lwrist -15.8804
lhand -40.0435 1.50333
lfingers 7.12502
lthumb -13.0097 31.0777
rfemur -12.3924 9.26768 17.8953
rtibia 35.3736
rfoot -31.8446 -27.9128
rtoes -18.8828
lfemur -6.94987 -15.8238 -20.5475
ltibia 32.4463
lfoot -30.2818 25.238
ltoes 1.45078
518
root 6.38625 15.1985 -0.715172 -138.06 -89.061 137.927
lowerback 7.48421 0.940726 -0.564538
upperback 3.51159 1.09842 -1.13197
thorax -0.560398 0.508708 -0.932531
lowerneck 1.08919 4.42822 8.91629
upperneck -15.2187 5.34129 -6.94776
head -4.27007 2.41024 -3.80233
rclavicle -9.93923e-017 1.07344e-014
rhumerus -2.68292 38.5998 -85.3782
rradius 107.586
rwrist -36.5087
rhand -36.453 4.7232
rfingers 7.12502
rthumb -9.54689 -25.0405
lclavicle -9.93923e-017 1.07344e-014
lhumerus 10.5437 -30.9246 64.8728
lradius 116.773
lwrist -16.0437
lhand -40.4642 2.07513
lfingers 7.12502
lthumb -13.4152 31.6232
rfemur -12.3876 8.86565 17.7733
rtibia 35.4996
rfoot -31.6782 -27.6223
rtoes -19.8752
lfemur -7.08358 -14.9934 -20.4965
ltibia 32.6904
lfoot -29.8509 24.6651
ltoes 1.43585
519
root 6.38375 15.1857 -0.735417 -125.434 -88.7455 125.052
lowerback 7.74857 1.07989 -0.850976
upperback 3.38249 1.25477 -1.32574
thorax -0.839326 0.585295 -0.990078
lowerneck 1.35968 4.34628 9.02024
upperneck -15.3897 5.26536 -6.88665
head -4.3733 2.36507 -3.81075
rclavicle 9.93923e-017 1.19271e-015
rhumerus -1.16904 38.1349 -85.6136
rradius 107.538
rwrist -38.4065
rhand -37.1971 5.28712
rfingers 7.12502
rthumb -10.2648 -24.4424
lclavicle 9.93923e-017 1.19271e-015
lhumerus 12.7936 -30.6282 63.9796
lradius 116.497
lwrist -16.5042
lhand -40.6982 3.1215
lfingers 7.12502
lthumb -13.6408 32.6545
rfemur -12.2597 8.43346 17.3828
rtibia 35.7171
rfoot -31.5594 -27.2504
rtoes -20.2404
lfemur -7.08734 -13.941 -20.7257
ltibia 32.9758
lfoot -29.1932 23.9921
ltoes 0.513524
520
root 6.37727 15.1706 -0.746303 -108.913 -88.4308 108.203
lowerback 7.89419 1.14964 -1.11529
upperback 3.39708 1.31836 -1.52539
thorax -0.905093 0.61427 -1.05557
lowerneck 1.55452 4.24001 9.12955
upperneck -15.63 5.12779 -6.95537
head -4.48499 2.29265 -3.85835
rclavicle -1.56543e-014 -3.57812e-015
rhumerus 0.534789 37.7733 -85.7061
rradius 107.259
rwrist -39.7558
rhand -37.7871 5.84928
rfingers 7.12502
rthumb -10.8339 -23.8513
lclavicle -1.56543e-014 -3.57812e-015
lhumerus 15.0831 -30.1039 63.1964
lradius 116.07
lwrist -16.7175
lhand -41.8675 3.56583
lfingers 7.12502
lthumb -14.7675 33.0197
rfemur -11.9044 7.83225 16.8984
rtibia 35.8427
rfoot -31.5226 -27.0316
rtoes -20.8924
lfemur -7.12294 -12.8455 -21.0469
ltibia 33.4789
lfoot -28.3637 23.2192
ltoes -1.45411
521
root 6.37371 15.1549 -0.753965 -99.4618 -88.537 98.459
lowerback 7.71516 1.1927 -0.967086
upperback 3.66107 1.38782 -1.51279
thorax -0.530043 0.64701 -1.12442
lowerneck 1.52516 4.16772 9.04708
upperneck -16.0346 4.99367 -6.98744
head -4.61499 2.22023 -3.86123
rclavicle 1.42131e-014 -1.27222e-014
rhumerus 2.89569 37.3536 -85.3999
rradius 106.594
rwrist -40.7992
rhand -37.8197 6.16424
rfingers 7.12502
rthumb -10.8653 -23.5347
lclavicle 1.42131e-014 -1.27222e-014
lhumerus 17.6511 -29.1771 62.4701
lradius 115.441
lwrist -16.5422
lhand -42.4297 3.25841
lfingers 7.12502
lthumb -15.3091 32.6718
rfemur -11.4538 7.73243 17.0331
rtibia 35.8009
rfoot -31.7649 -27.277
rtoes -21.5646
lfemur -7.39009 -11.5201 -20.7544
ltibia 34.3124
lfoot -27.559 22.2033
ltoes -3.7961
522
root 6.37761 15.145 -0.761129 -87.0985 -89.0199 85.8882
lowerback 7.59653 1.25697 -0.420848
upperback 3.8749 1.51284 -1.39876
thorax -0.231178 0.714062 -1.31776
lowerneck 1.53335 4.06215 8.91584
upperneck -16.4518 4.83849 -6.84642
head -4.76485 2.13061 -3.8026
rclavicle -1.27719e-014 1.55052e-014
rhumerus 5.17765 36.6739 -85.1061
rradius 105.733
rwrist -41.7123
rhand -37.6569 6.21921
rfingers 7.12502
rthumb -10.7083 -23.4879
lclavicle -1.27719e-014 1.55052e-014
lhumerus 20.1621 -28.3865 61.8624
lradius 114.646
lwrist -16.4917
lhand -43.411 3.50539
lfingers 7.12502
lthumb -16.2541 32.8441
rfemur -10.9948 8.25104 17.7098
rtibia 35.5605
rfoot -32.283 -27.9744
rtoes -21.553
lfemur -8.04738 -10.1094 -19.9224
ltibia 35.557
lfoot -27.0262 20.8832
ltoes -5.34658
523
root 6.38975 15.1358 -0.763302 -27.4771 -89.4864 26.1627
lowerback 8.00946 1.22711 0.332601
upperback 3.67141 1.53006 -1.17947
thorax -0.654185 0.731183 -1.5286
lowerneck 1.77943 3.93835 8.97596
upperneck -16.5567 4.69884 -6.83017
head -4.84922 2.06034 -3.81256
rclavicle 6.90777e-015 -9.93923e-015
rhumerus 6.80169 36.1738 -85.1073
rradius 104.844
rwrist -42.4971
rhand -38.135 5.69421
rfingers 7.12502
rthumb -11.1695 -23.9885
lclavicle 6.90777e-015 -9.93923e-015
lhumerus 21.8857 -27.7764 61.6629
lradius 113.859
lwrist -16.6723
lhand -44.3456 4.62721
lfingers 7.12502
lthumb -17.1539 33.89
rfemur -10.6097 8.68502 18.6511
rtibia 35.2034
rfoot -32.7543 -28.5624
rtoes -21.191
lfemur -9.10093 -8.82081 -18.7548
ltibia 37.1408
lfoot -26.4528 19.4904
ltoes -7.011
524
root 6.4079 15.1222 -0.75817 31.1906 -88.9399 -32.6027
lowerback 8.30194 1.16987 1.14868
upperback 3.67451 1.5189 -0.928406
thorax -0.796782 0.731325 -1.73414
lowerneck 1.81989 3.82749 9.06838
upperneck -16.8202 4.52467 -6.96288
head -4.94428 1.97048 -3.87195
rclavicle 6.4605e-016 -5.36719e-015
rhumerus 9.20144 35.6685 -84.5695
rradius 103.771
rwrist -43.659
rhand -39.0135 4.96477
rfingers 7.12502
rthumb -12.0167 -24.6703
lclavicle 6.4605e-016 -5.36719e-015
lhumerus 23.8488 -26.9324 61.5248
lradius 113.08
lwrist -16.9539
lhand -44.5702 6.0149
lfingers 7.12502
lthumb -17.37 35.2588
rfemur -10.2972 8.60578 19.5408
rtibia 34.8443
rfoot -32.8324 -28.6928
rtoes -20.6682
lfemur -10.3079 -7.80581 -17.5503
ltibia 38.9008
lfoot -25.8874 17.9834
ltoes -9.97897
525
root 6.421 15.1083 -0.744963 32.7238 -88.3256 -34.2394
lowerback 9.25894 1.1271 1.57462
upperback 3.19707 1.52096 -0.787546
thorax -1.80918 0.725276 -1.85838
lowerneck 2.18951 3.64074 9.07376
upperneck -16.839 4.29988 -7.04484
head -5.02852 1.87392 -3.90118
rclavicle 5.1684e-015 7.95139e-016
rhumerus 10.6348 35.0378 -84.5188
rradius 102.689
rwrist -45.2203
rhand -39.5787 4.29151
rfingers 7.12502
rthumb -12.5617 -25.3109
lclavicle 5.1684e-015 7.95139e-016
lhumerus 25.0756 -26.4666 61.8526
lradius 112.354
lwrist -17.103
lhand -44.0854 6.98944
lfingers 7.12502
lthumb -16.9034 36.2738
rfemur -10.0258 8.07339 19.8533
rtibia 34.5589
rfoot -32.6567 -28.4413
rtoes -20.0479
lfemur -11.4788 -7.16145 -16.8394
ltibia 40.6424
lfoot -25.4811 16.2615
ltoes -12.5094
